<svg aria-hidden="true" style="position: absolute; width: 0; height: 0; overflow: hidden;" version="1.1" xmlns="http://www.w3.org/2000/svg" xmlns:xlink="http://www.w3.org/1999/xlink">
<defs>
<symbol id="icon-code" viewBox="0 0 20 20">
<path d="M5.719 14.75c-0.236 0-0.474-0.083-0.664-0.252l-5.060-4.498 5.341-4.748c0.412-0.365 1.044-0.33 1.411 0.083s0.33 1.045-0.083 1.412l-3.659 3.253 3.378 3.002c0.413 0.367 0.45 0.999 0.083 1.412-0.197 0.223-0.472 0.336-0.747 0.336zM14.664 14.748l5.341-4.748-5.060-4.498c-0.413-0.367-1.045-0.33-1.411 0.083s-0.33 1.045 0.083 1.412l3.378 3.003-3.659 3.252c-0.413 0.367-0.45 0.999-0.083 1.412 0.197 0.223 0.472 0.336 0.747 0.336 0.236 0 0.474-0.083 0.664-0.252zM9.986 16.165l2-12c0.091-0.545-0.277-1.060-0.822-1.151-0.547-0.092-1.061 0.277-1.15 0.822l-2 12c-0.091 0.545 0.277 1.060 0.822 1.151 0.056 0.009 0.11 0.013 0.165 0.013 0.48 0 0.904-0.347 0.985-0.835z"></path>
</symbol>
<symbol id="icon-flash" viewBox="0 0 20 20">
<path d="M6.803 18.998c-0.194-0.127 3.153-7.16 3.038-7.469s-3.665-1.436-3.838-1.979c-0.174-0.543 7.007-8.707 7.196-8.549s-3.129 7.238-3.039 7.469c0.091 0.23 3.728 1.404 3.838 1.979s-7.002 8.676-7.195 8.549z"></path>
</symbol>
<symbol id="icon-home" viewBox="0 0 20 20">
<path d="M18.672 11h-1.672v6c0 0.445-0.194 1-1 1h-4v-6h-4v6h-4c-0.806 0-1-0.555-1-1v-6h-1.672c-0.598 0-0.47-0.324-0.060-0.748l8.024-8.032c0.195-0.202 0.451-0.302 0.708-0.312 0.257 0.010 0.513 0.109 0.708 0.312l8.023 8.031c0.411 0.425 0.539 0.749-0.059 0.749z"></path>
</symbol>
<symbol id="icon-pencil" viewBox="0 0 32 32">
<path d="M27 0c2.761 0 5 2.239 5 5 0 1.126-0.372 2.164-1 3l-2 2-7-7 2-2c0.836-0.628 1.874-1 3-1zM2 23l-2 9 9-2 18.5-18.5-7-7-18.5 18.5zM22.362 11.362l-14 14-1.724-1.724 14-14 1.724 1.724z"></path>
</symbol>
<symbol id="icon-pencil2" viewBox="0 0 32 32">
<path d="M12 20l4-2 14-14-2-2-14 14-2 4zM9.041 27.097c-0.989-2.085-2.052-3.149-4.137-4.137l3.097-8.525 4-2.435 12-12h-6l-12 12-6 20 20-6 12-12v-6l-12 12-2.435 4z"></path>
</symbol>
<symbol id="icon-profile" viewBox="0 0 32 32">
<path d="M27 0h-24c-1.65 0-3 1.35-3 3v26c0 1.65 1.35 3 3 3h24c1.65 0 3-1.35 3-3v-26c0-1.65-1.35-3-3-3zM26 28h-22v-24h22v24zM8 18h14v2h-14zM8 22h14v2h-14zM10 9c0-1.657 1.343-3 3-3s3 1.343 3 3c0 1.657-1.343 3-3 3s-3-1.343-3-3zM15 12h-4c-1.65 0-3 0.9-3 2v2h10v-2c0-1.1-1.35-2-3-2z"></path>
</symbol>
<symbol id="icon-folder" viewBox="0 0 32 32">
<path d="M14 4l4 4h14v22h-32v-26z"></path>
</symbol>
<symbol id="icon-folder-open" viewBox="0 0 32 32">
<path d="M26 30l6-16h-26l-6 16zM4 12l-4 18v-26h9l4 4h13v4z"></path>
</symbol>
<symbol id="icon-compass" viewBox="0 0 32 32">
<path d="M17 32c-0.072 0-0.144-0.008-0.217-0.024-0.458-0.102-0.783-0.507-0.783-0.976v-15h-15c-0.469 0-0.875-0.326-0.976-0.783s0.129-0.925 0.553-1.123l30-14c0.381-0.178 0.833-0.098 1.13 0.199s0.377 0.749 0.199 1.13l-14 30c-0.167 0.358-0.524 0.577-0.906 0.577zM5.508 14h11.492c0.552 0 1 0.448 1 1v11.492l10.931-23.423-23.423 10.931z"></path>
</symbol>
<symbol id="icon-display" viewBox="0 0 32 32">
<path d="M0 2v20h32v-20h-32zM30 20h-28v-16h28v16zM21 24h-10l-1 4-2 2h16l-2-2z"></path>
</symbol>
<symbol id="icon-key" viewBox="0 0 32 32">
<path d="M22 0c-5.523 0-10 4.477-10 10 0 0.626 0.058 1.238 0.168 1.832l-12.168 12.168v6c0 1.105 0.895 2 2 2h2v-2h4v-4h4v-4h4l2.595-2.595c1.063 0.385 2.209 0.595 3.405 0.595 5.523 0 10-4.477 10-10s-4.477-10-10-10zM24.996 10.004c-1.657 0-3-1.343-3-3s1.343-3 3-3 3 1.343 3 3-1.343 3-3 3z"></path>
</symbol>
<symbol id="icon-cog" viewBox="0 0 32 32">
<path d="M29.181 19.070c-1.679-2.908-0.669-6.634 2.255-8.328l-3.145-5.447c-0.898 0.527-1.943 0.829-3.058 0.829-3.361 0-6.085-2.742-6.085-6.125h-6.289c0.008 1.044-0.252 2.103-0.811 3.070-1.679 2.908-5.411 3.897-8.339 2.211l-3.144 5.447c0.905 0.515 1.689 1.268 2.246 2.234 1.676 2.903 0.672 6.623-2.241 8.319l3.145 5.447c0.895-0.522 1.935-0.82 3.044-0.82 3.35 0 6.067 2.725 6.084 6.092h6.289c-0.003-1.034 0.259-2.080 0.811-3.038 1.676-2.903 5.399-3.894 8.325-2.219l3.145-5.447c-0.899-0.515-1.678-1.266-2.232-2.226zM16 22.479c-3.578 0-6.479-2.901-6.479-6.479s2.901-6.479 6.479-6.479c3.578 0 6.479 2.901 6.479 6.479s-2.901 6.479-6.479 6.479z"></path>
</symbol>
<symbol id="icon-meter2" viewBox="0 0 32 32">
<path d="M16 0c-8.837 0-16 7.163-16 16s7.163 16 16 16 16-7.163 16-16-7.163-16-16-16zM9.464 26.067c0.347-0.957 0.536-1.99 0.536-3.067 0-3.886-2.463-7.197-5.913-8.456 0.319-2.654 1.508-5.109 3.427-7.029 2.267-2.266 5.28-3.515 8.485-3.515s6.219 1.248 8.485 3.515c1.92 1.92 3.108 4.375 3.428 7.029-3.45 1.26-5.913 4.57-5.913 8.456 0 1.077 0.189 2.11 0.536 3.067-1.928 1.258-4.18 1.933-6.536 1.933s-4.608-0.675-6.536-1.933zM17.242 20.031c0.434 0.109 0.758 0.503 0.758 0.969v2c0 0.55-0.45 1-1 1h-2c-0.55 0-1-0.45-1-1v-2c0-0.466 0.324-0.86 0.758-0.969l0.742-14.031h1l0.742 14.031z"></path>
</symbol>
<symbol id="icon-sphere" viewBox="0 0 32 32">
<path d="M15 2c-8.284 0-15 6.716-15 15s6.716 15 15 15c8.284 0 15-6.716 15-15s-6.716-15-15-15zM23.487 22c0.268-1.264 0.437-2.606 0.492-4h3.983c-0.104 1.381-0.426 2.722-0.959 4h-3.516zM6.513 12c-0.268 1.264-0.437 2.606-0.492 4h-3.983c0.104-1.381 0.426-2.722 0.959-4h3.516zM21.439 12c0.3 1.28 0.481 2.62 0.54 4h-5.979v-4h5.439zM16 10v-5.854c0.456 0.133 0.908 0.355 1.351 0.668 0.831 0.586 1.625 1.488 2.298 2.609 0.465 0.775 0.867 1.638 1.203 2.578h-4.852zM10.351 7.422c0.673-1.121 1.467-2.023 2.298-2.609 0.443-0.313 0.895-0.535 1.351-0.668v5.854h-4.852c0.336-0.94 0.738-1.803 1.203-2.578zM14 12v4h-5.979c0.059-1.38 0.24-2.72 0.54-4h5.439zM2.997 22c-0.533-1.278-0.854-2.619-0.959-4h3.983c0.055 1.394 0.224 2.736 0.492 4h-3.516zM8.021 18h5.979v4h-5.439c-0.3-1.28-0.481-2.62-0.54-4zM14 24v5.854c-0.456-0.133-0.908-0.355-1.351-0.668-0.831-0.586-1.625-1.488-2.298-2.609-0.465-0.775-0.867-1.638-1.203-2.578h4.852zM19.649 26.578c-0.673 1.121-1.467 2.023-2.298 2.609-0.443 0.312-0.895 0.535-1.351 0.668v-5.854h4.852c-0.336 0.94-0.738 1.802-1.203 2.578zM16 22v-4h5.979c-0.059 1.38-0.24 2.72-0.54 4h-5.439zM23.98 16c-0.055-1.394-0.224-2.736-0.492-4h3.516c0.533 1.278 0.855 2.619 0.959 4h-3.983zM25.958 10h-2.997c-0.582-1.836-1.387-3.447-2.354-4.732 1.329 0.636 2.533 1.488 3.585 2.54 0.671 0.671 1.261 1.404 1.766 2.192zM5.808 7.808c1.052-1.052 2.256-1.904 3.585-2.54-0.967 1.285-1.771 2.896-2.354 4.732h-2.997c0.504-0.788 1.094-1.521 1.766-2.192zM4.042 24h2.997c0.583 1.836 1.387 3.447 2.354 4.732-1.329-0.636-2.533-1.488-3.585-2.54-0.671-0.671-1.261-1.404-1.766-2.192zM24.192 26.192c-1.052 1.052-2.256 1.904-3.585 2.54 0.967-1.285 1.771-2.896 2.354-4.732h2.997c-0.504 0.788-1.094 1.521-1.766 2.192z"></path>
</symbol>
<symbol id="icon-arrow-right2" viewBox="0 0 32 32">
<path d="M19.414 27.414l10-10c0.781-0.781 0.781-2.047 0-2.828l-10-10c-0.781-0.781-2.047-0.781-2.828 0s-0.781 2.047 0 2.828l6.586 6.586h-19.172c-1.105 0-2 0.895-2 2s0.895 2 2 2h19.172l-6.586 6.586c-0.39 0.39-0.586 0.902-0.586 1.414s0.195 1.024 0.586 1.414c0.781 0.781 2.047 0.781 2.828 0z"></path>
</symbol>
<symbol id="icon-google-plus" viewBox="0 0 32 32">
<path d="M10.181 14.294v3.494h5.775c-0.231 1.5-1.744 4.394-5.775 4.394-3.475 0-6.313-2.881-6.313-6.431s2.838-6.431 6.313-6.431c1.981 0 3.3 0.844 4.056 1.569l2.762-2.662c-1.775-1.656-4.075-2.662-6.819-2.662-5.631 0.006-10.181 4.556-10.181 10.188s4.55 10.181 10.181 10.181c5.875 0 9.775-4.131 9.775-9.95 0-0.669-0.075-1.181-0.163-1.688h-9.613z"></path>
<path d="M32 14h-3v-3h-3v3h-3v3h3v3h3v-3h3z"></path>
</symbol>
<symbol id="icon-facebook1" viewBox="0 0 32 32">
<path d="M19 6h5v-6h-5c-3.86 0-7 3.14-7 7v3h-4v6h4v16h6v-16h5l1-6h-6v-3c0-0.542 0.458-1 1-1z"></path>
</symbol>
<symbol id="icon-instagram" viewBox="0 0 32 32">
<path d="M16 2.881c4.275 0 4.781 0.019 6.462 0.094 1.563 0.069 2.406 0.331 2.969 0.55 0.744 0.288 1.281 0.638 1.837 1.194 0.563 0.563 0.906 1.094 1.2 1.838 0.219 0.563 0.481 1.412 0.55 2.969 0.075 1.688 0.094 2.194 0.094 6.463s-0.019 4.781-0.094 6.463c-0.069 1.563-0.331 2.406-0.55 2.969-0.288 0.744-0.637 1.281-1.194 1.837-0.563 0.563-1.094 0.906-1.837 1.2-0.563 0.219-1.413 0.481-2.969 0.55-1.688 0.075-2.194 0.094-6.463 0.094s-4.781-0.019-6.463-0.094c-1.563-0.069-2.406-0.331-2.969-0.55-0.744-0.288-1.281-0.637-1.838-1.194-0.563-0.563-0.906-1.094-1.2-1.837-0.219-0.563-0.481-1.413-0.55-2.969-0.075-1.688-0.094-2.194-0.094-6.463s0.019-4.781 0.094-6.463c0.069-1.563 0.331-2.406 0.55-2.969 0.288-0.744 0.638-1.281 1.194-1.838 0.563-0.563 1.094-0.906 1.838-1.2 0.563-0.219 1.412-0.481 2.969-0.55 1.681-0.075 2.188-0.094 6.463-0.094zM16 0c-4.344 0-4.887 0.019-6.594 0.094-1.7 0.075-2.869 0.35-3.881 0.744-1.056 0.412-1.95 0.956-2.837 1.85-0.894 0.888-1.438 1.781-1.85 2.831-0.394 1.019-0.669 2.181-0.744 3.881-0.075 1.713-0.094 2.256-0.094 6.6s0.019 4.887 0.094 6.594c0.075 1.7 0.35 2.869 0.744 3.881 0.413 1.056 0.956 1.95 1.85 2.837 0.887 0.887 1.781 1.438 2.831 1.844 1.019 0.394 2.181 0.669 3.881 0.744 1.706 0.075 2.25 0.094 6.594 0.094s4.888-0.019 6.594-0.094c1.7-0.075 2.869-0.35 3.881-0.744 1.050-0.406 1.944-0.956 2.831-1.844s1.438-1.781 1.844-2.831c0.394-1.019 0.669-2.181 0.744-3.881 0.075-1.706 0.094-2.25 0.094-6.594s-0.019-4.887-0.094-6.594c-0.075-1.7-0.35-2.869-0.744-3.881-0.394-1.063-0.938-1.956-1.831-2.844-0.887-0.887-1.781-1.438-2.831-1.844-1.019-0.394-2.181-0.669-3.881-0.744-1.712-0.081-2.256-0.1-6.6-0.1v0z"></path>
<path d="M16 7.781c-4.537 0-8.219 3.681-8.219 8.219s3.681 8.219 8.219 8.219 8.219-3.681 8.219-8.219c0-4.537-3.681-8.219-8.219-8.219zM16 21.331c-2.944 0-5.331-2.387-5.331-5.331s2.387-5.331 5.331-5.331c2.944 0 5.331 2.387 5.331 5.331s-2.387 5.331-5.331 5.331z"></path>
<path d="M26.462 7.456c0 1.060-0.859 1.919-1.919 1.919s-1.919-0.859-1.919-1.919c0-1.060 0.859-1.919 1.919-1.919s1.919 0.859 1.919 1.919z"></path>
</symbol>
<symbol id="icon-whatsapp" viewBox="0 0 32 32">
<path d="M27.281 4.65c-2.994-3-6.975-4.65-11.219-4.65-8.738 0-15.85 7.112-15.85 15.856 0 2.794 0.731 5.525 2.119 7.925l-2.25 8.219 8.406-2.206c2.319 1.262 4.925 1.931 7.575 1.931h0.006c0 0 0 0 0 0 8.738 0 15.856-7.113 15.856-15.856 0-4.238-1.65-8.219-4.644-11.219zM16.069 29.050v0c-2.369 0-4.688-0.637-6.713-1.837l-0.481-0.288-4.987 1.306 1.331-4.863-0.313-0.5c-1.325-2.094-2.019-4.519-2.019-7.012 0-7.269 5.912-13.181 13.188-13.181 3.519 0 6.831 1.375 9.319 3.862 2.488 2.494 3.856 5.8 3.856 9.325-0.006 7.275-5.919 13.188-13.181 13.188zM23.294 19.175c-0.394-0.2-2.344-1.156-2.706-1.288s-0.625-0.2-0.894 0.2c-0.262 0.394-1.025 1.288-1.256 1.556-0.231 0.262-0.462 0.3-0.856 0.1s-1.675-0.619-3.188-1.969c-1.175-1.050-1.975-2.35-2.206-2.744s-0.025-0.613 0.175-0.806c0.181-0.175 0.394-0.463 0.594-0.694s0.262-0.394 0.394-0.662c0.131-0.262 0.069-0.494-0.031-0.694s-0.894-2.15-1.219-2.944c-0.319-0.775-0.65-0.669-0.894-0.681-0.231-0.012-0.494-0.012-0.756-0.012s-0.694 0.1-1.056 0.494c-0.363 0.394-1.387 1.356-1.387 3.306s1.419 3.831 1.619 4.1c0.2 0.262 2.794 4.269 6.769 5.981 0.944 0.406 1.681 0.65 2.256 0.837 0.95 0.3 1.813 0.256 2.494 0.156 0.762-0.113 2.344-0.956 2.675-1.881s0.331-1.719 0.231-1.881c-0.094-0.175-0.356-0.275-0.756-0.475z"></path>
</symbol>
<symbol id="icon-twitter" viewBox="0 0 32 32">
<path d="M32 7.075c-1.175 0.525-2.444 0.875-3.769 1.031 1.356-0.813 2.394-2.1 2.887-3.631-1.269 0.75-2.675 1.3-4.169 1.594-1.2-1.275-2.906-2.069-4.794-2.069-3.625 0-6.563 2.938-6.563 6.563 0 0.512 0.056 1.012 0.169 1.494-5.456-0.275-10.294-2.888-13.531-6.862-0.563 0.969-0.887 2.1-0.887 3.3 0 2.275 1.156 4.287 2.919 5.463-1.075-0.031-2.087-0.331-2.975-0.819 0 0.025 0 0.056 0 0.081 0 3.181 2.263 5.838 5.269 6.437-0.55 0.15-1.131 0.231-1.731 0.231-0.425 0-0.831-0.044-1.237-0.119 0.838 2.606 3.263 4.506 6.131 4.563-2.25 1.762-5.075 2.813-8.156 2.813-0.531 0-1.050-0.031-1.569-0.094 2.913 1.869 6.362 2.95 10.069 2.95 12.075 0 18.681-10.006 18.681-18.681 0-0.287-0.006-0.569-0.019-0.85 1.281-0.919 2.394-2.075 3.275-3.394z"></path>
</symbol>
<symbol id="icon-renren" viewBox="0 0 32 32">
<path d="M13.287 0.331c-7.537 1.269-13.287 7.825-13.287 15.725 0 3.925 1.425 7.519 3.775 10.3 5.581-2.7 9.488-8.813 9.512-15.931v-10.094z"></path>
<path d="M18.712 0.331c7.538 1.269 13.288 7.825 13.288 15.725 0 3.925-1.425 7.519-3.775 10.3-5.581-2.7-9.488-8.813-9.512-15.931v-10.094z"></path>
<path d="M15.944 20.081c-0.994 4.113-3.963 7.625-7.656 9.963 2.275 1.244 4.881 1.956 7.656 1.956s5.381-0.712 7.656-1.956c-3.694-2.337-6.663-5.85-7.656-9.963z"></path>
</symbol>
<symbol id="icon-youtube" viewBox="0 0 32 32">
<path d="M31.681 9.6c0 0-0.313-2.206-1.275-3.175-1.219-1.275-2.581-1.281-3.206-1.356-4.475-0.325-11.194-0.325-11.194-0.325h-0.012c0 0-6.719 0-11.194 0.325-0.625 0.075-1.987 0.081-3.206 1.356-0.963 0.969-1.269 3.175-1.269 3.175s-0.319 2.588-0.319 5.181v2.425c0 2.587 0.319 5.181 0.319 5.181s0.313 2.206 1.269 3.175c1.219 1.275 2.819 1.231 3.531 1.369 2.563 0.244 10.881 0.319 10.881 0.319s6.725-0.012 11.2-0.331c0.625-0.075 1.988-0.081 3.206-1.356 0.962-0.969 1.275-3.175 1.275-3.175s0.319-2.587 0.319-5.181v-2.425c-0.006-2.588-0.325-5.181-0.325-5.181zM12.694 20.15v-8.994l8.644 4.513-8.644 4.481z"></path>
</symbol>
<symbol id="icon-behance" viewBox="0 0 32 32">
<path d="M9.281 6.412c0.944 0 1.794 0.081 2.569 0.25 0.775 0.162 1.431 0.438 1.988 0.813 0.55 0.375 0.975 0.875 1.287 1.5 0.3 0.619 0.45 1.394 0.45 2.313 0 0.994-0.225 1.819-0.675 2.481-0.456 0.662-1.119 1.2-2.006 1.625 1.213 0.35 2.106 0.962 2.706 1.831 0.6 0.875 0.887 1.925 0.887 3.163 0 1-0.194 1.856-0.575 2.581-0.387 0.731-0.912 1.325-1.556 1.781-0.65 0.462-1.4 0.8-2.237 1.019-0.831 0.219-1.688 0.331-2.575 0.331h-9.544v-19.688h9.281zM8.719 14.363c0.769 0 1.406-0.181 1.906-0.55 0.5-0.363 0.738-0.963 0.738-1.787 0-0.456-0.081-0.838-0.244-1.131-0.169-0.294-0.387-0.525-0.669-0.688-0.275-0.169-0.588-0.281-0.956-0.344-0.356-0.069-0.731-0.1-1.113-0.1h-4.050v4.6h4.388zM8.956 22.744c0.425 0 0.831-0.038 1.213-0.125 0.387-0.087 0.731-0.219 1.019-0.419 0.287-0.194 0.531-0.45 0.706-0.788 0.175-0.331 0.256-0.756 0.256-1.275 0-1.012-0.287-1.738-0.856-2.175-0.569-0.431-1.325-0.644-2.262-0.644h-4.7v5.419h4.625z"></path>
<path d="M22.663 22.675c0.587 0.575 1.431 0.863 2.531 0.863 0.788 0 1.475-0.2 2.044-0.6s0.913-0.825 1.044-1.262h3.45c-0.556 1.719-1.394 2.938-2.544 3.675-1.131 0.738-2.519 1.113-4.125 1.113-1.125 0-2.131-0.181-3.038-0.538-0.906-0.363-1.663-0.869-2.3-1.531-0.619-0.663-1.106-1.45-1.45-2.375-0.337-0.919-0.512-1.938-0.512-3.038 0-1.069 0.175-2.063 0.525-2.981 0.356-0.925 0.844-1.719 1.494-2.387s1.413-1.2 2.313-1.588c0.894-0.387 1.881-0.581 2.975-0.581 1.206 0 2.262 0.231 3.169 0.706 0.9 0.469 1.644 1.1 2.225 1.887s0.994 1.694 1.25 2.706c0.256 1.012 0.344 2.069 0.275 3.175h-10.294c0 1.119 0.375 2.188 0.969 2.756zM27.156 15.188c-0.462-0.512-1.256-0.794-2.212-0.794-0.625 0-1.144 0.106-1.556 0.319-0.406 0.213-0.738 0.475-0.994 0.787-0.25 0.313-0.425 0.65-0.525 1.006-0.1 0.344-0.163 0.663-0.181 0.938h6.375c-0.094-1-0.438-1.738-0.906-2.256z"></path>
<path d="M20.887 8h7.981v1.944h-7.981v-1.944z"></path>
</symbol>
<symbol id="icon-skype" viewBox="0 0 32 32">
<path d="M13.3 1.169c-0.050-0.031-0.106-0.056-0.156-0.081-0.056 0.012-0.106 0.019-0.162 0.031l0.319 0.050z"></path>
<path d="M1.15 13.156c-0.012 0.056-0.019 0.113-0.025 0.162 0.031 0.050 0.050 0.1 0.081 0.15l-0.056-0.313z"></path>
<path d="M30.837 18.831c0.012-0.056 0.019-0.113 0.031-0.169-0.031-0.050-0.050-0.1-0.081-0.15l0.050 0.319z"></path>
<path d="M18.5 30.719c0.050 0.031 0.106 0.056 0.156 0.081 0.056-0.012 0.113-0.019 0.169-0.025l-0.325-0.056z"></path>
<path d="M30.869 18.663c-0.012 0.056-0.019 0.113-0.031 0.169l-0.056-0.325c0.031 0.056 0.056 0.106 0.087 0.156 0.163-0.9 0.25-1.819 0.25-2.738 0-2.037-0.4-4.019-1.188-5.881-0.762-1.8-1.85-3.419-3.238-4.806s-3.006-2.475-4.8-3.237c-1.863-0.788-3.844-1.188-5.881-1.188-0.963 0-1.925 0.088-2.863 0.269 0 0-0.006 0-0.006 0 0.050 0.025 0.106 0.050 0.156 0.081l-0.319-0.050c0.056-0.012 0.106-0.019 0.162-0.031-1.287-0.681-2.731-1.050-4.194-1.050-2.388 0-4.638 0.931-6.325 2.619s-2.619 3.937-2.619 6.325c0 1.519 0.394 3.019 1.125 4.338 0.012-0.056 0.019-0.113 0.025-0.162l0.056 0.319c-0.031-0.050-0.056-0.1-0.081-0.15-0.15 0.856-0.225 1.731-0.225 2.606 0 2.038 0.4 4.019 1.188 5.881 0.763 1.8 1.85 3.413 3.237 4.8s3.006 2.475 4.806 3.238c1.863 0.788 3.844 1.188 5.881 1.188 0.887 0 1.775-0.081 2.644-0.238-0.050-0.031-0.1-0.056-0.156-0.081l0.325 0.056c-0.056 0.012-0.113 0.019-0.169 0.025 1.337 0.756 2.856 1.163 4.4 1.163 2.387 0 4.637-0.931 6.325-2.619s2.619-3.938 2.619-6.325c-0.006-1.519-0.4-3.019-1.137-4.35zM16.069 25.181c-5.369 0-7.769-2.637-7.769-4.619 0-1.012 0.75-1.725 1.781-1.725 2.3 0 1.7 3.3 5.988 3.3 2.194 0 3.406-1.194 3.406-2.413 0-0.731-0.363-1.544-1.806-1.9l-4.775-1.194c-3.844-0.963-4.544-3.044-4.544-5 0-4.056 3.819-5.581 7.406-5.581 3.306 0 7.2 1.825 7.2 4.263 0 1.044-0.906 1.65-1.938 1.65-1.962 0-1.6-2.713-5.55-2.713-1.963 0-3.044 0.887-3.044 2.156s1.55 1.675 2.894 1.981l3.538 0.787c3.869 0.863 4.85 3.125 4.85 5.25 0 3.294-2.531 5.756-7.637 5.756z"></path>
</symbol>
<symbol id="icon-reddit" viewBox="0 0 32 32">
<path d="M8 20c0-1.105 0.895-2 2-2s2 0.895 2 2c0 1.105-0.895 2-2 2s-2-0.895-2-2zM20 20c0-1.105 0.895-2 2-2s2 0.895 2 2c0 1.105-0.895 2-2 2s-2-0.895-2-2zM20.097 24.274c0.515-0.406 1.262-0.317 1.668 0.198s0.317 1.262-0.198 1.668c-1.434 1.13-3.619 1.86-5.567 1.86s-4.133-0.73-5.567-1.86c-0.515-0.406-0.604-1.153-0.198-1.668s1.153-0.604 1.668-0.198c0.826 0.651 2.46 1.351 4.097 1.351s3.271-0.7 4.097-1.351zM32 16c0-2.209-1.791-4-4-4-1.504 0-2.812 0.83-3.495 2.057-2.056-1.125-4.561-1.851-7.29-2.019l2.387-5.36 4.569 1.319c0.411 1.167 1.522 2.004 2.83 2.004 1.657 0 3-1.343 3-3s-1.343-3-3-3c-1.142 0-2.136 0.639-2.642 1.579l-5.091-1.47c-0.57-0.164-1.173 0.116-1.414 0.658l-3.243 7.282c-2.661 0.187-5.102 0.907-7.114 2.007-0.683-1.227-1.993-2.056-3.496-2.056-2.209 0-4 1.791-4 4 0 1.635 0.981 3.039 2.387 3.659-0.252 0.751-0.387 1.535-0.387 2.341 0 5.523 6.268 10 14 10s14-4.477 14-10c0-0.806-0.134-1.589-0.387-2.34 1.405-0.62 2.387-2.025 2.387-3.66zM27 5.875c0.621 0 1.125 0.504 1.125 1.125s-0.504 1.125-1.125 1.125-1.125-0.504-1.125-1.125 0.504-1.125 1.125-1.125zM2 16c0-1.103 0.897-2 2-2 0.797 0 1.487 0.469 1.808 1.145-1.045 0.793-1.911 1.707-2.552 2.711-0.735-0.296-1.256-1.016-1.256-1.856zM16 29.625c-6.42 0-11.625-3.414-11.625-7.625s5.205-7.625 11.625-7.625c6.42 0 11.625 3.414 11.625 7.625s-5.205 7.625-11.625 7.625zM28.744 17.856c-0.641-1.003-1.507-1.918-2.552-2.711 0.321-0.676 1.011-1.145 1.808-1.145 1.103 0 2 0.897 2 2 0 0.84-0.52 1.56-1.256 1.856z"></path>
</symbol>
<symbol id="icon-linkedin2" viewBox="0 0 32 32">
<path d="M12 12h5.535v2.837h0.079c0.77-1.381 2.655-2.837 5.464-2.837 5.842 0 6.922 3.637 6.922 8.367v9.633h-5.769v-8.54c0-2.037-0.042-4.657-3.001-4.657-3.005 0-3.463 2.218-3.463 4.509v8.688h-5.767v-18z"></path>
<path d="M2 12h6v18h-6v-18z"></path>
<path d="M8 7c0 1.657-1.343 3-3 3s-3-1.343-3-3c0-1.657 1.343-3 3-3s3 1.343 3 3z"></path>
</symbol>
</defs>
</svg>
